# xmcd
#
# Track frame offsets: 
#        150
#        12443
#        27761
#        44769
#        62140
#        83101
#        102188
#        120265
#        133027
#        146845
#        161260
#        177099
#        189354
#
# Disc length: 2763 seconds
#
# Revision: 0
# Processed by: cddbd v1.5.2PL0 Copyright (c) Steve Scherf et al.
# Submitted via: ExactAudioCopy v1.0b3
#
DISCID=a70ac90d
DTITLE=Julian Dawson - Deep Rain
DYEAR=2008
DGENRE=Acoustic
TTITLE0=When Love Says Goodnight
TTITLE1=Anything With Wheels
TTITLE2=Where Do Gurus Go
TTITLE3=Uneasy Rider
TTITLE4=We've Been Through Fire
TTITLE5=Never Alone
TTITLE6=Paradise Island Bar
TTITLE7=Sunday Into Saturday
TTITLE8=Love of a Kind
TTITLE9=All About the Ride
TTITLE10=If You Think You're Alone
TTITLE11=Old Man at the Mill
TTITLE12=Four Walls
EXTD=
EXTT0=
EXTT1=
EXTT2=
EXTT3=
EXTT4=
EXTT5=
EXTT6=
EXTT7=
EXTT8=
EXTT9=
EXTT10=
EXTT11=
EXTT12=
PLAYORDER=
